<svg width="39" height="34" viewBox="0 0 39 34" fill="none" xmlns="http://www.w3.org/2000/svg">
<path d="M9.09492 0.35916C10.8697 0.0620899 12.6598 0.214434 14.3203 0.762871L18.1137 6.66619L12.3703 12.4096C12.2561 12.5238 12.1875 12.6838 12.1951 12.8513C12.2027 13.0189 12.2713 13.1713 12.3932 13.2855L20.9244 21.2074C21.1453 21.4131 21.4881 21.4283 21.7242 21.2303C21.9604 21.0322 22.0137 20.6971 21.8537 20.4381L17.2529 12.9656L24.1617 7.20701C24.3598 7.04705 24.4283 6.77283 24.3445 6.5367L22.6078 1.7074C24.7787 0.435332 27.3609 -0.0597849 29.8975 0.366778C35.1533 1.23514 39 5.77498 39 11.0994V11.5412C39 14.7023 37.6898 17.7263 35.3742 19.882L21.61 32.7322C21.0387 33.2654 20.2846 33.5625 19.5 33.5625C18.7154 33.5625 17.9613 33.2654 17.39 32.7322L3.62578 19.882C1.31016 17.7263 0 14.7023 0 11.5412V11.0994C0 5.77498 3.84668 1.23514 9.09492 0.35916Z" fill="#12A7FB"/>
</svg>
