<svg width="49" height="50" viewBox="0 0 49 50" fill="none" xmlns="http://www.w3.org/2000/svg">
<g clip-path="url(#clip0_9_120)">
<path d="M31.707 16.1975L33.2461 17.7465C34.2226 18.7294 34.2226 20.3216 33.2461 21.3045L31.2109 23.3527L31.1719 23.3134L30.5469 22.6844L26.7969 18.9102L26.1328 18.2419L28.168 16.1936C29.1445 15.2107 30.7265 15.2107 31.7031 16.1936L31.707 16.1975ZM23.414 19.956C23.0469 19.5864 22.4531 19.5864 22.0898 19.956L18.1015 23.97C17.7344 24.3395 17.1406 24.3395 16.7773 23.97C16.414 23.6004 16.4101 23.0028 16.7773 22.6372L20.7617 18.6232C21.8594 17.5185 23.6406 17.5185 24.7383 18.6232L25.25 19.1382L25.914 19.8066L29.664 23.5808L30.289 24.2098L30.3281 24.2491L29.664 24.9175L22.9648 31.656C21.0898 33.5431 18.6992 34.8326 16.0976 35.3555L15.1211 35.552C14.8125 35.6149 14.4961 35.5167 14.2734 35.2926C14.0508 35.0685 13.957 34.75 14.0156 34.4394L14.2109 33.4566C14.7305 30.8382 16.0117 28.4322 17.8867 26.5451L23.9258 20.471L23.414 19.956Z" fill="white"/>
</g>
<path d="M48 25C48 38.072 37.4726 48.658 24.5 48.658C11.5274 48.658 1 38.072 1 25C1 11.9279 11.5274 1.34192 24.5 1.34192C37.4726 1.34192 48 11.9279 48 25Z" stroke="white" stroke-width="2"/>
<defs>
<clipPath id="clip0_9_120">
<rect width="20" height="20.129" fill="white" transform="translate(14 15.4387)"/>
</clipPath>
</defs>
</svg>
