<svg width="31" height="19" viewBox="0 0 31 19" fill="none" xmlns="http://www.w3.org/2000/svg">
<path d="M2.90625 0.125C1.30176 0.125 0 1.1748 0 2.46875C0 3.20605 0.429883 3.89941 1.1625 4.34375L14.3375 12.3125C15.0277 12.7275 15.9723 12.7275 16.6625 12.3125L29.8375 4.34375C30.5701 3.89941 31 3.20605 31 2.46875C31 1.1748 29.6982 0.125 28.0938 0.125H2.90625ZM0 5.59375V15.75C0 17.4736 1.7377 18.875 3.875 18.875H27.125C29.2623 18.875 31 17.4736 31 15.75V5.59375L17.825 13.5625C16.4445 14.3975 14.5555 14.3975 13.175 13.5625L0 5.59375Z" fill="#12A7FB"/>
</svg>
