<svg width="405" height="278" viewBox="0 0 405 278" fill="none" xmlns="http://www.w3.org/2000/svg">
<path d="M134.726 194.877C137.13 194.814 149.154 193.991 150.926 193.485C149.407 191.84 123.335 192.852 107.895 162.098C105.173 156.655 103.148 150.96 103.845 144.632C105.68 128.495 124.664 125.648 136.751 132.925C159.532 146.594 176.808 190.701 208.702 194.624C232.116 197.472 262.237 183.866 277.172 165.895C276.792 165.831 276.666 165.768 276.539 165.831C276.286 165.895 276.033 165.958 275.843 166.021C254.77 173.678 216.169 172.159 190.603 156.655C166.809 142.227 157.001 119.509 157.823 109.448C158.962 95.9688 172.315 94.7664 180.541 97.0445C189.654 99.5125 195.982 108.182 205.158 114.384C215.03 120.965 225.977 123.053 237.621 120.902C247.05 119.193 259.39 113.118 260.719 111.726C260.023 111.662 259.58 111.662 259.137 111.599C255.213 111.22 251.29 111.093 247.43 110.523C177.061 100.082 165.86 6.99532 87.6445 0.983597C59.6109 -1.16797 24.743 6.10938 1.39219 23.132C0.885938 23.5117 0.442969 23.8914 0 24.2711C0.0632813 24.3977 0.0632813 24.4609 0.126563 24.5875C0.632812 24.5875 1.13906 24.5242 1.64531 24.4609C5.63203 23.8281 9.55547 23.9547 13.4789 24.6508C28.5398 27.3719 43.6641 39.2688 48.8531 73.0609C52.207 94.7664 48.4102 105.208 53.9156 127.546C65.9391 176.336 111.502 195.637 134.726 194.877ZM47.6508 18.0695C47.0813 17.4367 47.0812 17.3102 46.8281 16.8039C54.4852 15.1586 62.1422 14.2094 69.9891 13.7664C69.293 23.0688 55.9406 27.2453 47.6508 18.0695ZM172.252 239.87C145.167 240.63 114.033 222.974 94.0992 201.016C91.1883 197.852 83.468 188.233 82.3289 186.208L82.582 185.955C86.7586 188.549 98.8453 197.725 117.26 203.041C132.574 207.47 147.698 207.027 162.57 200.952C176.934 195.067 188.515 200.636 189.844 202.788C178.137 205.192 177.124 205.572 174.656 207.787C171.429 210.571 171.745 215.191 179.086 218.671C195.666 226.518 218.953 216.899 240.595 234.745C242.114 236.01 245.721 239.68 246.987 241.516C246.923 241.642 246.797 241.705 246.734 241.832C243.696 240.883 236.355 237.086 221.295 235.947C205.664 234.681 191.995 239.301 172.252 239.87ZM282.867 80.4016C293.245 77.1109 309.002 71.9219 324.949 78.3133C335.138 82.4266 341.529 90.1469 345.262 100.209C347.477 106.157 348.49 112.675 348.49 118.37C348.363 118.37 348.237 118.37 348.11 118.434C347.984 118.18 347.857 117.864 347.794 117.611C344.63 103.689 328.873 89.8938 305.016 98.6898C273.248 110.46 222.497 104.828 193.071 68.3148C192.628 67.7453 191.552 67.2391 192.248 66.2898C192.312 66.1633 193.577 66.6695 194.147 67.1125C205.601 75.5922 218.384 80.9711 232.305 83.6922C251.606 87.5524 266.857 85.5273 282.867 80.4016ZM347.857 154.757C327.354 154.884 326.468 186.461 282.298 195.51C270.78 197.852 257.808 198.421 253.884 198.168V197.915C255.656 196.966 263.187 196.27 272.679 187.41C277.678 182.791 282.361 177.855 287.107 172.919C299.447 160.136 313.305 146.214 338.934 148.239C353.552 149.378 357.476 153.428 361.779 156.276C361.969 156.402 362.032 156.592 362.222 156.845C361.905 156.845 361.779 156.909 361.652 156.845C357.223 155.137 352.603 154.757 347.857 154.757ZM340.073 139.506C340.01 139.633 340.01 139.759 339.947 139.886C321.659 137.102 309.572 134.887 296.599 142.417C285.841 148.682 276.729 155.39 257.365 157.858C240.216 160.009 228.825 159.377 215.536 152.795C215.346 152.669 215.156 152.542 214.903 152.416C214.903 152.289 214.966 152.226 214.966 152.099C230.723 154.504 238.001 155.327 250.088 148.429C264.199 140.266 275.463 131.596 295.207 128.812C313.938 126.217 327.67 130.394 340.073 139.506ZM169.973 38.5727C169.594 38.193 169.277 37.8133 168.645 37.1172C173.454 37.1172 187.439 36.3578 202.437 42.4328C214.903 47.4953 222.813 55.7219 234.204 63.2523C241.228 67.8719 249.012 69.1375 257.238 68.3781C259.959 68.125 262.617 67.6188 265.338 67.3023C265.591 67.2391 265.908 67.3023 266.288 67.4922C265.908 67.7453 265.528 68.0617 265.148 68.2516C260.023 70.7828 254.58 72.2383 248.948 72.7445C232.432 74.3898 217.118 70.4031 202.5 62.9992C190.287 56.7344 179.466 48.5078 169.973 38.5727ZM405 189.435C402.785 191.397 390.635 196.776 377.979 192.789C370.195 190.321 365.639 183.36 357.982 177.538C351.654 172.729 344.756 172.539 340.2 172.223C340.58 171.716 340.77 171.463 340.959 171.337C350.325 165.515 360.26 163.616 370.891 167.223C378.802 169.881 383.041 175.766 390.129 182.538C396.963 189.119 403.418 188.802 404.747 189.182C404.81 189.119 404.873 189.182 405 189.435ZM270.527 276.13C271.92 276.89 271.54 277.08 271.477 277.396C259.77 276.51 250.024 272.587 241.861 263.348C228.066 247.717 215.473 245.692 211.106 244.553C211.423 244.427 211.613 244.3 211.802 244.3C220.092 244.363 228.319 244.743 236.419 246.768C252.429 250.818 258.567 262.841 262.744 269.106C264.769 272.144 267.363 274.359 270.527 276.13Z" fill="white"/>
</svg>
