<svg width="49" height="50" viewBox="0 0 49 50" fill="none" xmlns="http://www.w3.org/2000/svg">
<path d="M48 25.3419C48 38.414 37.4726 49 24.5 49C11.5274 49 1 38.414 1 25.3419C1 12.2698 11.5274 1.68384 24.5 1.68384C37.4726 1.68384 48 12.2698 48 25.3419Z" stroke="white" stroke-width="2"/>
<path d="M27 14.7743C27 13.6609 26.1062 12.7614 25 12.7614C23.8938 12.7614 23 13.6609 23 14.7743V23.8323H14C12.8937 23.8323 12 24.7318 12 25.8452C12 26.9586 12.8937 27.8581 14 27.8581H23V36.9162C23 38.0296 23.8938 38.9291 25 38.9291C26.1062 38.9291 27 38.0296 27 36.9162V27.8581H36C37.1062 27.8581 38 26.9586 38 25.8452C38 24.7318 37.1062 23.8323 36 23.8323H27V14.7743Z" fill="white"/>
</svg>
