<svg width="49" height="50" viewBox="0 0 49 50" fill="none" xmlns="http://www.w3.org/2000/svg">
<g clip-path="url(#clip0_9_119)">
<path d="M20.0357 13.8841L19.7143 14.5306H15.4286C14.6384 14.5306 14 15.1772 14 15.9774C14 16.7777 14.6384 17.4242 15.4286 17.4242H32.5714C33.3616 17.4242 34 16.7777 34 15.9774C34 15.1772 33.3616 14.5306 32.5714 14.5306H28.2857L27.9643 13.8841C27.7232 13.3913 27.2277 13.0839 26.6875 13.0839H21.3125C20.7723 13.0839 20.2768 13.3913 20.0357 13.8841ZM32.5714 18.871H15.4286L16.375 34.1977C16.4464 35.3416 17.3839 36.2323 18.5134 36.2323H29.4866C30.6161 36.2323 31.5536 35.3416 31.625 34.1977L32.5714 18.871Z" fill="white"/>
</g>
<path d="M48 24.6581C48 37.7301 37.4726 48.3161 24.5 48.3161C11.5274 48.3161 1 37.7301 1 24.6581C1 11.586 11.5274 1 24.5 1C37.4726 1 48 11.586 48 24.6581Z" stroke="white" stroke-width="2"/>
<defs>
<clipPath id="clip0_9_119">
<rect width="20" height="23.1484" fill="white" transform="translate(14 13.0839)"/>
</clipPath>
</defs>
</svg>
